Coordinates
version=1
nRows=14
nColumns=40
inDegrees=yes

Units are S.I. units (second, meters, Newtons, ...)
Angles are in degrees.

endheader
time	pelvis_tilt	pelvis_list	pelvis_rotation	pelvis_tx	pelvis_ty	pelvis_tz	hip_flexion_r	hip_adduction_r	hip_rotation_r	knee_angle_r	knee_angle_r_beta	ankle_angle_r	subtalar_angle_r	mtp_angle_r	hip_flexion_l	hip_adduction_l	hip_rotation_l	knee_angle_l	knee_angle_l_beta	ankle_angle_l	subtalar_angle_l	mtp_angle_l	lumbar_extension	lumbar_bending	lumbar_rotation	arm_flex_r	arm_add_r	arm_rot_r	elbow_flex_r	pro_sup_r	wrist_flex_r	wrist_dev_r	arm_flex_l	arm_add_l	arm_rot_l	elbow_flex_l	pro_sup_l	wrist_flex_l	wrist_dev_l
      0.86000000	     -1.50300806	     -2.77186752	      6.77590289	      0.10265360	      0.88022053	     -1.03756616	     25.15766946	      1.38764683	    -15.54215400	    -27.77500052	     -0.48476521	      1.87457053	     -8.08642659	      7.13248119	      2.27213797	      7.36315863	      1.28115033	    -51.46509222	     -0.89823531	    -17.36277118	     13.24039898	     -3.35890030	     -1.94610218	      3.74731533	    -11.60932994	    -10.22312944	     -8.11236952	    -12.98316663	     15.00276919	     89.95437384	      0.00000000	      0.00000000	      1.60757026	     12.79731850	     22.90386254	     58.09607693	     89.95437384	      0.00000000	      0.00000000
      0.87000000	     -1.52745135	     -2.96772480	      6.60037931	      0.11306124	      0.88125611	     -1.03607470	     24.38667350	      1.79150285	    -15.71727435	    -27.66507887	     -0.48284671	      2.53405260	     -7.69072382	      6.95732193	      3.84639306	      7.64107273	      0.94270780	    -53.97805302	     -0.94209475	    -19.47866043	     13.45749466	     -2.78840418	     -1.93239323	      4.00164553	    -11.09541770	     -9.86370262	     -8.12307915	    -12.89126296	     15.38212647	     89.95437384	      0.00000000	      0.00000000	      1.16122403	     12.49978720	     22.53070663	     57.53968190	     89.95437384	      0.00000000	      0.00000000
      0.88000000	     -1.56382954	     -3.13107210	      6.47176692	      0.12316225	      0.88219004	     -1.03467185	     23.62829944	      2.13727977	    -15.89088064	    -27.54487133	     -0.48074870	      3.21724631	     -7.19471123	      6.73716713	      5.55883484	      7.93669764	      0.74228630	    -56.53352714	     -0.98669619	    -20.80887507	     13.71678194	     -2.21755749	     -1.93945092	      4.21035165	    -10.63566364	     -9.51797419	     -8.13576452	    -12.59696079	     15.94410922	     89.95437384	      0.00000000	      0.00000000	      0.75460978	     12.24307020	     22.13187436	     56.86304120	     89.95437384	      0.00000000	      0.00000000
      0.89000000	     -1.51530284	     -3.25330414	      6.36721099	      0.13319238	      0.88324855	     -1.03334146	     22.77230498	      2.45898485	    -16.01336420	    -27.44561979	     -0.47901643	      3.85492546	     -6.77063591	      6.50702406	      7.15081404	      8.19415142	      0.66328511	    -58.90824076	     -1.02814276	    -21.06294375	     14.31027033	     -1.75753193	     -2.05371596	      4.38151281	    -10.20136588	     -9.09321344	     -8.15704534	    -12.42333281	     16.52206018	     89.95437384	      0.00000000	      0.00000000	      0.36969410	     12.01706611	     21.71643723	     56.11643479	     89.95437384	      0.00000000	      0.00000000
      0.90000000	     -1.57001921	     -3.43181088	      6.26930638	      0.14314425	      0.88410277	     -1.03200058	     21.95789785	      2.82865601	    -16.19325621	    -27.14844119	     -0.47382969	      4.48989092	     -6.28571277	      6.27597268	      8.86899644	      8.48996015	      0.64244464	    -61.19239352	     -1.06800874	    -20.45010596	     15.33086319	     -1.18569919	     -2.04369463	      4.58287490	     -9.67748780	     -8.77100309	     -8.18360363	    -12.30944933	     17.27303247	     89.95437384	      0.00000000	      0.00000000	     -0.03393989	     11.72250479	     21.22279080	     55.39927689	     89.95437384	      0.00000000	      0.00000000
      0.91000000	     -1.51722197	     -3.50134718	      6.13014806	      0.15296587	      0.88514048	     -1.03069153	     21.05877036	      3.09243310	    -16.33158801	    -26.92366093	     -0.46990653	      5.08388538	     -5.87343512	      6.05544135	     10.45175202	      8.69836924	      0.78934131	    -63.23983966	     -1.10374342	    -19.50604641	     16.36187684	     -0.67091588	     -2.19113483	      4.68124522	     -9.17217360	     -8.28294690	     -8.20976284	    -12.16458773	     17.91731745	     89.95437384	      0.00000000	      0.00000000	     -0.43161372	     11.50058653	     20.74274979	     54.60412087	     89.95437384	      0.00000000	      0.00000000
      0.92000000	     -1.49857061	     -3.54304704	      5.97301097	      0.16268978	      0.88611607	     -1.02936166	     20.15095227	      3.36456735	    -16.32544263	    -26.58591009	     -0.46401167	      5.70799612	     -5.40541836	      5.83079188	     12.09587883	      8.84091810	      0.91168330	    -65.13887821	     -1.13688790	    -18.33177915	     17.28808492	     -0.06225423	     -2.30891644	      4.74371918	     -8.64344119	     -7.82713913	     -8.23819326	    -12.03789952	     18.65885644	     89.95437384	      0.00000000	      0.00000000	     -0.84877730	     11.26439762	     20.26150430	     53.80134372	     89.95437384	      0.00000000	      0.00000000
      0.93000000	     -1.64914491	     -3.49723446	      5.78192084	      0.17211833	      0.88687822	     -1.02822323	     19.53177290	      3.44813485	    -16.45476934	    -26.49425043	     -0.46241190	      6.14358620	     -5.05135463	      5.13138215	     14.08595920	      8.84296613	      1.24229681	    -67.13872380	     -1.17179179	    -15.31561605	     17.12232767	     17.15509595	     -2.27875953	      4.70156322	     -8.09216134	     -7.37154735	     -8.31910797	    -11.92299518	     19.58450593	     89.95437384	      0.00000000	      0.00000000	     -1.28779013	     11.03468193	     19.78825994	     52.99052886	     89.95437384	      0.00000000	      0.00000000
      0.94000000	     -1.49112247	     -3.47495260	      5.55889324	      0.18182934	      0.88813641	     -1.02690779	     18.44205586	      3.68898580	    -16.34545671	    -26.13307315	     -0.45610817	      6.63722014	     -4.71511777	      4.96702352	     15.48478894	      8.92259879	      1.49458125	    -68.45710983	     -1.19480196	    -14.44267783	     17.88667759	     17.06551465	     -2.56504517	      4.69588701	     -7.54766353	     -6.70802699	     -8.37584231	    -11.88426658	     20.18121194	     89.95437384	      0.00000000	      0.00000000	     -1.73544958	     10.82022569	     19.39551223	     52.14842352	     89.95437384	      0.00000000	      0.00000000
      0.95000000	     -1.35824565	     -3.18114906	      5.25732383	      0.19142278	      0.88932558	     -1.02566520	     17.43872432	      3.55881707	    -16.38672522	    -25.88308197	     -0.45174500	      6.93709654	     -4.57270739	      4.84691755	     16.83214232	      8.73090684	      1.95757873	    -69.47786137	     -1.21261744	    -13.94580497	     18.07352719	     16.85116346	     -2.87835343	      4.37590935	     -7.02147963	     -5.95421801	     -8.40817137	    -11.83214902	     20.80531360	     89.95437384	      0.00000000	      0.00000000	     -2.30365263	     10.60746447	     19.18040607	     51.49871123	     89.95437384	      0.00000000	      0.00000000
      0.96000000	     -1.31728015	     -3.53969654	      4.96609374	      0.20140138	      0.89022717	     -1.02410653	     16.42554409	      4.31979123	    -15.93795256	    -25.34805079	     -0.44240695	      7.44733147	     -4.06514164	      4.60382590	     18.31352672	      9.27830243	      2.22147784	    -70.51385061	     -1.23069886	    -11.80885502	     18.54090040	     17.82461220	     -2.92924318	      4.77880727	     -6.34741157	     -5.57550785	     -8.55762690	    -11.75919539	     21.88007744	     89.95437384	      0.00000000	      0.00000000	     -2.78075978	     10.42557503	     18.51140580	     50.48645098	     89.95437384	      0.00000000	      0.00000000
      0.97000000	     -1.26762833	     -3.39863569	      4.66636384	      0.21087030	      0.89125906	     -1.02307650	     15.45612951	      4.42442409	    -15.58201096	    -24.93372510	     -0.43517560	      7.92202386	     -3.88773652	      4.42549070	     19.65569416	      9.12534320	      2.52763300	    -71.13703423	     -1.24157547	     -9.91998249	     18.74228612	     17.98966494	     -3.09999493	      4.63679468	     -5.84569327	     -4.82914496	     -8.65834202	    -11.63097709	     22.55971177	     89.95437384	      0.00000000	      0.00000000	     -3.31327815	     10.17877187	     18.27000572	     49.63640941	     89.95437384	      0.00000000	      0.00000000
      0.98000000	     -1.20923514	     -3.25851612	      4.28317279	      0.22065509	      0.89222837	     -1.02186598	     14.50483612	      4.51928198	    -15.21060919	    -24.61434701	     -0.42960140	      8.35425167	     -3.65089020	      4.25270257	     20.86440280	      9.10849876	      3.04814315	    -71.49727344	     -1.24786283	     -7.78476525	     18.85982713	     18.12790048	     -3.24303362	      4.48166789	     -5.27018264	     -4.18063455	     -8.77165962	    -11.43568233	     23.39259781	     89.95437384	      0.00000000	      0.00000000	     -3.90121200	      9.96511836	     17.96556095	     48.74741838	     89.95437384	      0.00000000	      0.00000000
      0.99000000	     -1.19170278	     -3.14490174	      4.02054857	      0.23014113	      0.89306416	     -1.02095968	     13.57335504	      4.60604254	    -14.94918406	    -24.24120292	     -0.42308881	      8.74856543	     -3.50933708	      4.10597915	     22.13123115	      9.02046926	      3.42759809	    -71.61403627	     -1.24990072	     -5.68051602	     18.92078434	     18.20677746	     -3.34637553	      4.36664913	     -4.82796166	     -3.49228585	     -8.91808461	    -11.27975141	     24.22671650	     89.95437384	      0.00000000	      0.00000000	     -4.44695635	      9.74154627	     17.64776888	     47.80277434	     89.95437384	      0.00000000	      0.00000000
